<svg xmlns="http://www.w3.org/2000/svg" width="24" height="24">
	<path fill-rule="nonzero" d="M6.078 18.927c0 .468.165.866.496 1.197.33.33.73.496 1.197.496a1.63 1.63 0 0 0 1.197-.496c.33-.33.496-.73.496-1.197a1.63 1.63 0 0 0-.496-1.197 1.63 1.63 0 0 0-1.197-.495 1.63 1.63 0 0 0-1.197.495c-.33.331-.496.73-.496 1.197zm11.85 0c0 .468.165.866.495 1.197.33.33.73.496 1.197.496a1.63 1.63 0 0 0 1.197-.496c.33-.33.496-.73.496-1.197a1.63 1.63 0 0 0-.496-1.197 1.63 1.63 0 0 0-1.197-.495 1.63 1.63 0 0 0-1.197.495c-.33.331-.496.73-.496 1.197zM1 4.54v6.771c0 .212.07.399.212.562a.821.821 0 0 0 .542.284L15.56 13.77a3.394 3.394 0 0 1-.06.284c-.03.128-.057.245-.079.35a1.435 1.435 0 0 0-.033.291c0 .142.106.424.318.847H3.539a.813.813 0 0 0-.595.251.813.813 0 0 0-.251.595c0 .23.083.428.251.595a.813.813 0 0 0 .595.252h13.542c.23 0 .427-.084.595-.252a.813.813 0 0 0 .251-.595c0-.123-.048-.297-.145-.522a9.844 9.844 0 0 0-.39-.787 37.38 37.38 0 0 1-.271-.503l2.34-10.883h2.698c.23 0 .428-.084.595-.252a.813.813 0 0 0 .251-.595.813.813 0 0 0-.25-.595.813.813 0 0 0-.596-.251h-3.385a.847.847 0 0 0-.641.29c-.067.08-.124.188-.173.325a2.323 2.323 0 0 0-.099.35c-.017.097-.042.227-.073.39l-.06.338H1.847a.813.813 0 0 0-.595.251.813.813 0 0 0-.251.595z"/>
</svg>
