<svg width="24" height="24" xmlns="http://www.w3.org/2000/svg">
  <path d="M23.6571429 22.267013l-6.6576624-6.72c1.3028572-1.6332468 2.0883117-3.7028572 2.0883117-5.95324677 0-5.26753246-4.2701299-9.53766233-9.5438961-9.53766233C4.27012987.0561039 0 4.33246753 0 9.6c0 5.2675325 4.27012987 9.5376623 9.5438961 9.5376623 2.2815584 0 4.3698701-.797922 6.0155844-2.131948l6.614026 6.6763636C22.372987 23.894026 22.6472727 24 22.9153247 24c.2555844 0 .5111688-.0935065.7044156-.2805195.4114285-.3927273.4238961-1.0410389.0374026-1.4524675zM9.5438961 17.0867532c-2.00103896 0-3.88363636-.7792207-5.29870129-2.1942857C2.83012987 13.4774026 2.05090909 11.5948052 2.05090909 9.6c0-2.00103896.77922078-3.88363636 2.19428572-5.29246753C5.66025974 2.89246753 7.54285714 2.11324675 9.5438961 2.11324675c2.001039 0 3.8836364.77922078 5.2987013 2.19428572C16.2576623 5.7225974 17.0368831 7.60519481 17.0368831 9.6c0 2.001039-.7792208 3.8836364-2.1942857 5.2924675-1.4150649 1.415065-3.2976623 2.1942857-5.2987013 2.1942857z" />
</svg>
