<svg xmlns="http://www.w3.org/2000/svg" width="24" height="24">
	<path d="M22.167 9.072h-7.225L12.747 2.52A.775.775 0 0 0 12.001 2a.775.775 0 0 0-.747.52L9.06 9.073H1.786A.788.788 0 0 0 1 9.858c0 .044.005.093.015.132.01.172.088.364.329.555L7.28 14.73l-2.278 6.625c-.113.32 0 .678.27.884.142.104.275.192.442.192.162 0 .353-.083.49-.177l5.796-4.13 5.795 4.13a.92.92 0 0 0 .49.177c.168 0 .3-.083.438-.192a.778.778 0 0 0 .27-.884l-2.279-6.625 5.889-4.223.142-.123c.128-.137.256-.324.256-.525 0-.432-.403-.786-.835-.786zM19.839 10.8l-3.92 2.814a1.38 1.38 0 0 0-.5 1.561l1.478 4.307c.064.182-.142.334-.3.226l-3.8-2.71-.006-.006a1.831 1.831 0 0 1-.79-1.497V5.206c0-.107.152-.132.186-.029l1.454 4.332c.187.56.712.938 1.301.938h4.779c.191 0 .27.246.118.354z"/>
</svg>
