<svg xmlns="http://www.w3.org/2000/svg" width="24" height="23">
  <path fill="#000" fill-rule="nonzero" d="M23.094 7.716h-7.882L12.817.568A.845.845 0 0 0 12.002 0c-.37 0-.696.22-.814.568L8.793 7.716H.857A.86.86 0 0 0 0 8.573a.63.63 0 0 0 .016.145c.01.187.097.396.36.605l6.477 4.565-2.486 7.229a.86.86 0 0 0 .295.964c.155.113.3.209.482.209.177 0 .386-.091.536-.193l6.322-4.506 6.323 4.506c.15.107.359.193.536.193.182 0 .327-.091.477-.209a.85.85 0 0 0 .294-.964l-2.486-7.229 6.425-4.608.155-.134c.14-.15.279-.353.279-.573 0-.471-.44-.857-.911-.857z"/>
</svg>
