<svg xmlns="http://www.w3.org/2000/svg" width="24" height="24">
	<path d="M22.165 9.071h-7.223l-2.196-6.55A.775.775 0 0 0 12 2a.775.775 0 0 0-.746.52L9.058 9.072H1.786A.788.788 0 0 0 1 9.857c0 .044.005.093.015.133.01.172.088.363.329.555l5.937 4.184-2.279 6.624c-.113.32 0 .678.27.884.143.103.275.192.442.192.162 0 .354-.084.491-.177L12 18.122l5.795 4.13a.92.92 0 0 0 .49.177c.168 0 .3-.084.438-.192a.778.778 0 0 0 .27-.884l-2.279-6.624 5.888-4.224.143-.122c.127-.138.255-.325.255-.526 0-.432-.403-.786-.835-.786z"/>
</svg>
