<svg xmlns="http://www.w3.org/2000/svg" width="160" height="15">
  <g fill="none" fill-rule="nonzero">
    <path stroke="#F8C144" d="M80.5 5.714v-.001zm0 0l.01.069.028.024 4.626 3.26-.122.355-1.66 4.822c-.008.025.002.059.018.07.061.045.063.046.029.046-.006 0 .04-.017.067-.036L88 11.114l.29.206 4.222 3.008a.24.24 0 0 0 .04.024.414.414 0 0 1 .04-.033.067.067 0 0 0 .022-.079l-1.779-5.17.303-.217 4.25-3.047.06-.047c.035-.038.05-.062.053-.05-.006-.022-.056-.066-.107-.066h-5.613l-.115-.34-1.595-4.76c-.01-.026-.034-.043-.08-.043-.027 0-.052.017-.06.037l-1.71 5.107h-5.649a.073.073 0 0 0-.073.07zm12.054 8.638l.019.008c-.019 0-.027 0-.02-.008zM96.5 5.714v-.001zm0 0l.01.069.028.024 4.626 3.26-.122.355-1.66 4.822c-.008.025.002.059.018.07.061.045.063.046.029.046-.006 0 .04-.017.067-.036l4.505-3.21.29.206 4.222 3.008a.24.24 0 0 0 .04.024.414.414 0 0 1 .04-.033.067.067 0 0 0 .022-.079l-1.779-5.17.303-.217 4.25-3.047.06-.047c.035-.038.05-.062.053-.05-.006-.022-.056-.065-.107-.065h-5.613l-.115-.341-1.595-4.76c-.01-.026-.034-.043-.08-.043-.027 0-.052.017-.06.037l-1.71 5.107h-5.649a.073.073 0 0 0-.073.07zm12.054 8.638l.019.008c-.019 0-.027 0-.02-.008zM112.5 5.714v-.001zm0 0l.01.069.028.024 4.626 3.26-.122.355-1.66 4.822c-.008.025.002.059.018.07.061.045.063.046.029.046-.006 0 .04-.017.067-.036l4.505-3.21.29.206 4.222 3.008a.24.24 0 0 0 .04.024.414.414 0 0 1 .04-.033.067.067 0 0 0 .022-.079l-1.779-5.17.303-.217 4.25-3.047.06-.047c.035-.038.05-.062.053-.05-.006-.022-.056-.066-.107-.066h-5.613l-.115-.34-1.595-4.76c-.01-.026-.034-.043-.08-.043-.027 0-.052.017-.06.037l-1.71 5.107h-5.649a.073.073 0 0 0-.073.07zm12.054 8.638l.019.008c-.019 0-.027 0-.02-.008zM128.5 5.714v-.001zm0 0l.01.069.028.024 4.626 3.26-.122.355-1.66 4.822c-.008.025.002.059.018.07.061.045.063.046.029.046-.006 0 .04-.017.067-.036l4.505-3.21.29.206 4.222 3.008a.24.24 0 0 0 .04.024.414.414 0 0 1 .04-.033.067.067 0 0 0 .022-.079l-1.779-5.17.303-.217 4.25-3.047.06-.047c.035-.038.05-.062.053-.05-.006-.022-.056-.065-.107-.065h-5.613l-.115-.341-1.595-4.76c-.01-.026-.034-.043-.08-.043-.027 0-.052.017-.06.037l-1.71 5.107h-5.649a.073.073 0 0 0-.073.07zm12.054 8.638l.019.008c-.019 0-.027 0-.02-.008zM144.5 5.714v-.001zm0 0l.01.069.028.024 4.626 3.26-.122.355-1.66 4.822c-.008.025.002.059.018.07.061.045.063.046.029.046-.006 0 .04-.017.067-.036l4.505-3.21.29.206 4.222 3.008a.24.24 0 0 0 .04.024.414.414 0 0 1 .04-.033.067.067 0 0 0 .022-.079l-1.779-5.17.303-.217 4.25-3.047.06-.047c.035-.038.05-.062.053-.05-.006-.022-.056-.065-.107-.065h-5.613l-.115-.341-1.595-4.76c-.01-.026-.034-.043-.08-.043-.027 0-.052.017-.06.037l-1.71 5.107h-5.649a.073.073 0 0 0-.073.07zm12.054 8.638l.019.008c-.019 0-.027 0-.02-.008z"/>
    <path fill="#F8C144" d="M15.395 5.143h-5.254L8.544.38A.564.564 0 0 0 8.001 0a.564.564 0 0 0-.542.378L5.86 5.144H.571A.573.573 0 0 0 0 5.715a.42.42 0 0 0 .01.097c.008.125.065.264.24.404L4.57 9.259 2.91 14.077a.573.573 0 0 0 .196.643c.104.075.2.14.322.14a.701.701 0 0 0 .357-.129l4.215-3.004 4.216 3.004a.67.67 0 0 0 .356.129c.122 0 .218-.061.319-.14.2-.148.279-.409.196-.643L11.43 9.26l4.283-3.073.104-.088c.093-.1.186-.237.186-.383 0-.314-.293-.572-.608-.572z"/>
    <path fill="#F8C144" d="M31.395 5.143h-5.254L24.544.38A.564.564 0 0 0 24.001 0a.564.564 0 0 0-.542.378L21.86 5.144h-5.29a.573.573 0 0 0-.571.571.42.42 0 0 0 .01.097c.008.125.065.264.24.404l4.319 3.043-1.658 4.818a.573.573 0 0 0 .196.643c.104.075.2.14.322.14a.701.701 0 0 0 .357-.129l4.215-3.004 4.216 3.004a.67.67 0 0 0 .356.129c.122 0 .218-.061.319-.14.2-.148.279-.408.196-.643L27.43 9.26l4.283-3.072.104-.09c.093-.1.186-.236.186-.382 0-.314-.293-.572-.608-.572z"/>
    <path fill="#F8C144" d="M47.395 5.143h-5.254L40.544.38A.564.564 0 0 0 40.001 0a.564.564 0 0 0-.542.378L37.86 5.144h-5.29a.573.573 0 0 0-.571.571.42.42 0 0 0 .01.097c.008.125.065.264.24.404l4.319 3.043-1.658 4.818a.573.573 0 0 0 .196.643c.104.075.2.14.322.14a.701.701 0 0 0 .357-.129l4.215-3.004 4.216 3.004a.67.67 0 0 0 .356.129c.122 0 .218-.061.319-.14.2-.148.279-.409.196-.643L43.43 9.26l4.283-3.073.104-.088c.093-.1.186-.237.186-.383 0-.314-.293-.572-.608-.572z"/>
    <path fill="#F8C144" d="M63.395 5.143h-5.254L56.544.38A.564.564 0 0 0 56.001 0a.564.564 0 0 0-.542.378L53.86 5.144h-5.29a.573.573 0 0 0-.571.571.42.42 0 0 0 .01.097c.008.125.065.264.24.404l4.319 3.043-1.658 4.818a.573.573 0 0 0 .196.643c.104.075.2.14.322.14a.701.701 0 0 0 .357-.129l4.215-3.004 4.216 3.004a.67.67 0 0 0 .356.129c.122 0 .218-.061.319-.14.2-.148.279-.408.196-.643L59.43 9.26l4.283-3.072.104-.09c.093-.1.186-.236.186-.382 0-.314-.293-.572-.608-.572z"/>
    <path fill="#F8C144" d="M79.395 5.143h-5.254L72.544.38A.564.564 0 0 0 72.001 0a.564.564 0 0 0-.542.378L69.86 5.144h-5.29a.573.573 0 0 0-.571.571.42.42 0 0 0 .01.097c.008.125.065.264.24.404l4.319 3.043-1.658 4.818a.573.573 0 0 0 .196.643c.104.075.2.14.322.14a.701.701 0 0 0 .357-.129l4.215-3.004 4.216 3.004a.67.67 0 0 0 .356.129c.122 0 .218-.061.319-.14.2-.148.279-.408.196-.643L75.43 9.26l4.283-3.072.104-.09c.093-.1.186-.236.186-.382 0-.314-.293-.572-.608-.572z"/>
  </g>
</svg>