<svg xmlns="http://www.w3.org/2000/svg" width="170" height="16">
  <g fill="none" fill-rule="nonzero">
    <g fill="#F8C144">
      <path d="M33.126 5.388h-5.504L25.95.398A.59.59 0 0 0 25.381 0a.59.59 0 0 0-.568.396l-1.674 4.992H17.6a.6.6 0 0 0-.599.598c0 .034.004.071.011.102.008.13.067.276.251.423l4.524 3.187-1.737 5.047a.6.6 0 0 0 .206.674c.109.078.21.146.337.146.123 0 .27-.064.374-.135l4.415-3.146 4.415 3.146c.109.08.239.127.374.135.128 0 .228-.064.333-.146a.593.593 0 0 0 .206-.674l-1.736-5.047 4.486-3.218.109-.093c.096-.105.194-.247.194-.4 0-.33-.307-.6-.636-.6zM16.126 5.387h-5.504L8.95.397A.59.59 0 0 0 8.381 0a.59.59 0 0 0-.568.396L6.139 5.388H.6A.6.6 0 0 0 0 5.986c0 .034.004.071.011.102.008.13.067.276.251.422l4.524 3.188-1.737 5.047a.6.6 0 0 0 .206.674c.109.078.21.146.337.146.123 0 .27-.064.374-.135l4.415-3.147 4.415 3.147c.109.08.239.127.374.135.128 0 .228-.064.333-.146a.593.593 0 0 0 .206-.674l-1.736-5.047 4.486-3.218.109-.093c.096-.105.194-.248.194-.4 0-.33-.307-.6-.636-.6zM50.126 5.388h-5.504L42.95.398A.59.59 0 0 0 42.381 0a.59.59 0 0 0-.568.396l-1.674 4.992H34.6a.6.6 0 0 0-.599.598c0 .034.004.071.011.102.008.13.067.276.251.423l4.524 3.187-1.737 5.047a.6.6 0 0 0 .206.674c.109.078.21.146.337.146.123 0 .27-.064.374-.135l4.415-3.146 4.415 3.146c.109.08.239.127.374.135.128 0 .228-.064.333-.146a.593.593 0 0 0 .206-.674l-1.736-5.047 4.486-3.218.109-.093c.096-.105.194-.247.194-.4 0-.33-.307-.6-.636-.6zM67.126 5.388h-5.504L59.95.398A.59.59 0 0 0 59.381 0a.59.59 0 0 0-.568.396l-1.674 4.992H51.6a.6.6 0 0 0-.599.598c0 .034.004.071.011.102.008.13.067.276.251.423l4.524 3.187-1.737 5.047a.6.6 0 0 0 .206.674c.109.078.21.146.337.146.123 0 .27-.064.374-.135l4.415-3.146 4.415 3.146c.109.08.239.127.374.135.128 0 .228-.064.333-.146a.593.593 0 0 0 .206-.674l-1.736-5.047 4.486-3.218.109-.093c.096-.105.194-.247.194-.4 0-.33-.307-.6-.636-.6zM84.126 5.388h-5.504L76.95.398A.59.59 0 0 0 76.381 0a.59.59 0 0 0-.568.396l-1.674 4.992H68.6a.6.6 0 0 0-.599.598c0 .034.004.071.011.102.008.13.067.276.251.423l4.524 3.187-1.737 5.047a.6.6 0 0 0 .206.674c.109.078.21.146.337.146.123 0 .27-.064.374-.135l4.415-3.146 4.415 3.146c.109.08.239.127.374.135.128 0 .228-.064.333-.146a.593.593 0 0 0 .206-.674l-1.736-5.047 4.486-3.218.109-.093c.096-.105.194-.247.194-.4 0-.33-.307-.6-.636-.6z"/>
    </g>
    <g stroke="#F8C144">
      <path d="M102.5 5.986zm0 0l.01.073c0 .005.006.015.04.043l4.83 3.404-.122.355-1.737 5.05c-.013.037.001.083.026.102.068.05.074.052.045.052-.001 0 .05-.02.084-.042l4.705-3.353.29.206 4.421 3.151a.26.26 0 0 0 .073.037c-.018-.002-.007-.01.04-.047a.094.094 0 0 0 .031-.11L113.38 9.51l.302-.217 4.453-3.192.066-.051c.044-.049.061-.08.062-.063-.001-.037-.068-.098-.136-.098h-5.863l-.115-.342-1.671-4.985c-.013-.037-.048-.062-.105-.061a.09.09 0 0 0-.085.055l-1.788 5.333H102.6a.1.1 0 0 0-.1.098zm15.762 0zM85.5 5.985v.001zm0 0l.01.074c0 .005.006.014.04.043l4.83 3.404-.122.355-1.737 5.05c-.013.037.001.083.026.102.068.05.074.052.045.052-.001 0 .05-.02.084-.042l4.705-3.354.29.207 4.421 3.151a.26.26 0 0 0 .073.037c-.018-.002-.007-.01.04-.047a.094.094 0 0 0 .031-.11L96.38 9.51l.302-.217 4.453-3.192.066-.052c.044-.048.061-.08.062-.063-.001-.037-.068-.098-.136-.098h-5.863l-.115-.34L93.477.56c-.013-.037-.048-.062-.105-.061a.09.09 0 0 0-.085.055l-1.788 5.333H85.6a.1.1 0 0 0-.1.097zm15.762 0zM119.5 5.986zm0 0l.01.073c0 .005.006.015.04.043l4.83 3.404-.122.355-1.737 5.05c-.013.037.001.083.026.102.068.05.074.052.045.052-.001 0 .05-.02.084-.042l4.705-3.353.29.206 4.421 3.151a.26.26 0 0 0 .073.037c-.018-.002-.007-.01.04-.047a.094.094 0 0 0 .031-.11L130.38 9.51l.302-.217 4.453-3.192.066-.051c.044-.049.061-.08.062-.063-.001-.037-.068-.098-.136-.098h-5.863l-.115-.342-1.671-4.985c-.013-.037-.048-.062-.105-.061a.09.09 0 0 0-.085.055l-1.788 5.333H119.6a.1.1 0 0 0-.1.098zm15.762 0zM136.5 5.986zm0 0l.01.073c0 .005.006.015.04.043l4.83 3.404-.122.355-1.737 5.05c-.013.037.001.083.026.102.068.05.074.052.045.052-.001 0 .05-.02.084-.042l4.705-3.353.29.206 4.421 3.151a.26.26 0 0 0 .073.037c-.018-.002-.007-.01.04-.047a.094.094 0 0 0 .031-.11L147.38 9.51l.302-.217 4.453-3.192.066-.051c.044-.049.061-.08.062-.063-.001-.037-.068-.098-.136-.098h-5.863l-.115-.342-1.671-4.985c-.013-.037-.048-.062-.105-.061a.09.09 0 0 0-.085.055l-1.788 5.333H136.6a.1.1 0 0 0-.1.098zm15.762 0zM153.5 5.986zm0 0l.01.073c0 .005.006.015.04.043l4.83 3.404-.122.355-1.737 5.05c-.013.037.001.083.026.102.068.05.074.052.045.052-.001 0 .05-.02.084-.042l4.705-3.353.29.206 4.421 3.151a.26.26 0 0 0 .073.037c-.018-.002-.007-.01.04-.047a.094.094 0 0 0 .031-.11L164.38 9.51l.302-.217 4.453-3.192.066-.051c.044-.049.061-.08.062-.063-.001-.037-.068-.098-.136-.098h-5.863l-.115-.342-1.671-4.985c-.013-.037-.048-.062-.105-.061a.09.09 0 0 0-.085.055l-1.788 5.333H153.6a.1.1 0 0 0-.1.098zm15.762 0z"/>
    </g>
  </g>
</svg>